<?xml version="1.0" encoding="UTF-8" standalone="no"?>
<svg
   xmlns:dc="http://purl.org/dc/elements/1.1/"
   xmlns:cc="http://creativecommons.org/ns#"
   xmlns:rdf="http://www.w3.org/1999/02/22-rdf-syntax-ns#"
   xmlns:svg="http://www.w3.org/2000/svg"
   xmlns="http://www.w3.org/2000/svg"
   viewBox="0 0 4266.6665 2666.6667"
   height="2666.6667"
   width="4266.6665"
   xml:space="preserve"
   id="svg2"
   version="1.1"><metadata
     id="metadata8"><rdf:RDF><cc:Work
         rdf:about=""><dc:format>image/svg+xml</dc:format><dc:type
           rdf:resource="http://purl.org/dc/dcmitype/StillImage" /></cc:Work></rdf:RDF></metadata><defs
     id="defs6" /><g
     transform="matrix(1.3333333,0,0,-1.3333333,0,2666.6667)"
     id="g10"><g
       transform="scale(0.1)"
       id="g12"><g
         transform="scale(1.96319)"
         id="g14"><path
           id="path16"
           style="fill:#ffffff;fill-opacity:1;fill-rule:nonzero;stroke:none"
           d="M 16300,0 H 0 V 10187.5 H 16300 V 0" /></g><g
         transform="scale(1.86487)"
         id="g18"><path
           id="path20"
           style="fill:#ebf3fa;fill-opacity:1;fill-rule:nonzero;stroke:none"
           d="m 16227.2,2023.1 c -84,-529.32 -540.1,-919.16 -1075.9,-918.89 l -3086.4,1.39 -2704.33,1.29 h -81.19 l -578.96,0.22 h -74.7 l -552.53,0.21 -94.49,0.05 -769.87,0.32 -135.72,0.16 -627.87,0.33 h -93.79 l -76.95,0.05 -1082.11,0.54 -188.97,0.05 -835.93,0.38 h -47.63 l -130.59,0.05 -1288.97,0.64 c -164.84,0.06 -324.43,36.2 -469.17,102.64 -219.26,100.59 -404.4,270.9 -522.12,491.19 -83.48,156.25 -173.49,339.27 -260.74,543.73 -139.62,327.37 -272.2,709.87 -359.59,1126.41 -69.9,332.95 -110.868,687.67 -103.574,1053.32 1.223,65.64 4.097,131.7 8.645,198.04 3.967,57.53 9.149,115.29 15.689,173.25 20.93,186.34 55.69,374.5 106.65,563.1 61.84,228.71 147.49,458.14 261.38,685.91 135.33,270.73 310.67,539.08 533.19,800.84 120.16,141.41 254.15,280.97 402.98,417.9 2667.37,2453.3 5254.79,1421.29 5624.47,1421.29 1782.11,0 1351.52,1124.9 3324.89,1296.98 4173.6,364.01 3552.8,-3480.58 3552.7,-3480.77 0,-0.13 -61.7,-211.44 -80.6,-290.12 -25.7,-105.75 -45.5,-205.87 -59.7,-300.81 -1,-7.24 -2.1,-14.47 -3.1,-21.7 -4,-27.53 -7.5,-54.55 -10.3,-81.18 -21.6,-189.67 -20.3,-357.91 -0.8,-509.26 36.3,-283.24 136,-507.17 269.1,-700.8 88.8,-129.29 192.5,-244.95 302.1,-355.63 30.7,-31.05 61.9,-61.72 93.5,-92.18 40.7,-39.41 81.8,-78.45 123,-117.54 54.9,-52.17 109.9,-104.51 163.9,-157.97 11.5,-11.37 23.1,-22.9 34.6,-34.48 19.7,-19.84 39.2,-39.9 58.5,-60.17 79.4,-83.17 155.2,-170.2 223.9,-264.47 15.1,-20.43 29.6,-41.23 43.9,-62.36 16.7,-24.88 32.8,-50.3 48.5,-76.31 49.7,-82.58 93.7,-170.95 130.1,-266.93 106.8,-282.11 147.7,-629.81 74.9,-1088.71" /></g><path
         id="path22"
         style="fill:#d6e6fb;fill-opacity:1;fill-rule:nonzero;stroke:none"
         d="M 14188.1,5161 5616.49,6446.9 1837.09,8256.1 c 2.28,122.4 7.64,245.6 16.12,369.3 7.4,107.3 17.07,215 29.25,323.1 39.04,347.5 103.87,698.4 198.89,1050.1 115.33,426.5 275.05,854.4 487.44,1279.1 0,0 1924.65,799.1 2756.88,799.1 125.04,0 225.33,-18 290.82,-59.5 489.31,-309.9 1865.57,-2159.5 2530.8,-2159.5 16.43,0 32.31,1.2 47.85,3.5 380.76,56.4 703.25,376.3 1080.55,376.3 261.51,0 549.32,-153.6 901.21,-655.2 633.1,-902.6 1059,-1377.3 1554.3,-1377.3 177.1,0 363.1,60.7 570.7,184.3 617.1,367.4 999.9,857.2 1458.1,857.2 126.8,0 259.3,-37.5 404.2,-125.5 668.6,-405.9 2106,-2721.9 2106,-2721.9 L 14188.1,5161" /><g
         transform="scale(1.74272)"
         id="g24"><path
           id="path26"
           style="fill:#c0dafc;fill-opacity:1;fill-rule:nonzero;stroke:none"
           d="m 10821.5,2961.4 c -844.7,0 -967.56,724.27 -967.56,724.27 0,0 1063.56,1534.78 1215.56,1534.78 1.3,0 2.6,-0.12 3.8,-0.35 126.4,-25.24 454.5,-549.88 617.5,-549.88 13.6,0 26,3.67 37.2,11.59 143.8,102.77 746.1,2191.97 976.1,2213.89 4.3,0.42 8.8,0.63 13.2,0.63 99.2,0 217.5,-100.78 324.8,-201.55 107.2,-100.78 203.5,-201.56 258.7,-201.56 9.4,0 17.5,2.9 24.4,9.2 49.8,45.7 274.3,514.87 505.9,922.33 184.5,325.04 373.7,610.84 482.1,610.84 0.1,0 0.1,0 0.3,0 108.7,-0.48 256.9,-236 413.2,-534.6 v 0 c -156.3,298.6 -304.5,534.12 -413.2,534.6 -0.2,0 -0.2,0 -0.3,0 -108.4,0 -297.6,-285.8 -482.1,-610.84 l -0.1,-0.14 c 0,0 345.9,362.53 389,362.53 2.9,0 4.4,-1.6 4.4,-5.01 0,-47.38 3.4,-187.5 30.9,-187.49 4.3,0 9.2,3.44 14.8,11.23 34.3,48 87.6,149.46 136.2,149.46 9.6,0 19.1,-4.02 28.2,-13.27 54.8,-55.83 292.2,-241.14 292.2,-241.14 v 0 c 263.9,-503.9 550.6,-1187.35 709.6,-1224.56 16.7,-3.9 34,-5.68 51.8,-5.68 65.9,0 139.2,24.47 215.9,56.51 -1.2,-7.74 -2.3,-15.48 -3.4,-23.22 -4.3,-29.46 -8,-58.37 -11,-86.86 -11.4,-100.7 -16.9,-195.74 -16.9,-285.73 0,-91.41 5.5,-177.61 16,-259.22 38.9,-303.09 145.6,-542.72 288,-749.92 95,-138.35 206,-262.12 323.3,-380.56 -228.9,-76.89 -562.9,-188.32 -955.1,-316.97 -0.9,113.04 -19.2,766.21 -329,775.62 -5,0.18 -10.1,0.23 -15.2,0.23 -130.8,0 -264.5,-49.86 -397.6,-99.67 -133.1,-49.86 -265.5,-99.73 -393.8,-99.73 -71.7,0 -142.1,15.55 -210.6,55.32 -29.6,17.21 -64.2,24.96 -102.9,24.96 -185.2,0 -462.1,-178.63 -713.6,-357.26 -251.6,-178.63 -477.9,-357.25 -561.8,-357.25 -3.1,0 -6.1,0.22 -8.8,0.74 -164.4,30.41 246.6,699.08 222,967.91 -2.7,29.55 -17.1,42.75 -40.8,42.75 -192.1,0 -991.7,-869.39 -1064.8,-976.75 -32.4,-47.45 -79.1,-67.48 -127.5,-67.48 -74.7,0 -153.7,47.63 -191.1,116.14 -4.6,8.38 -10.9,12.28 -18.8,12.28 -98.5,0 -433.3,-606.06 -433.3,-606.06 l -267.1,-279.56 616.5,-71.96 1294.6,61.69 1777.5,545.12 c -1353.2,-432.14 -2909.7,-900.95 -3421.4,-944.44 -47.3,-4.02 -92.6,-5.91 -135.9,-5.91" /></g><g
         transform="scale(1.64062)"
         id="g28"><path
           id="path30"
           style="fill:#c0dafc;fill-opacity:1;fill-rule:nonzero;stroke:none"
           d="m 15273.6,4155.2 c 363,115.93 712.2,229.36 1026.3,332.43 0.1,-11.39 0,-17.67 0,-17.67 L 15273.6,4155.2" /></g><g
         transform="scale(1.64061)"
         id="g32"><path
           id="path34"
           style="fill:#a6cbfd;fill-opacity:1;fill-rule:nonzero;stroke:none"
           d="m 12010.4,3510.65 -654.8,76.44 283.7,296.96 c 0,0 355.6,643.78 460.3,643.78 8.4,0 15.1,-4.14 20,-13.04 39.7,-72.78 123.5,-123.37 202.9,-123.37 51.5,0 101.1,21.28 135.4,71.68 77.8,114.05 927.1,1037.55 1131.2,1037.55 25.2,0 40.5,-14.02 43.4,-45.41 26,-285.57 -410.6,-995.85 -235.9,-1028.16 2.9,-0.55 6,-0.79 9.3,-0.79 89.2,0 329.5,189.75 596.8,379.49 267.2,189.75 561.3,379.5 758.1,379.5 41,0 77.8,-8.23 109.2,-26.52 72.8,-42.24 147.6,-58.76 223.7,-58.76 136.3,0 277,52.97 418.4,105.94 141.3,52.91 283.3,105.87 422.2,105.87 5.5,0 10.9,-0.06 16.3,-0.24 329,-10 348.5,-703.82 349.4,-823.9 -314,-103.07 -663.3,-216.51 -1026.3,-332.44 l -1888,-579.05 -1375.3,-65.53" /></g><g
         transform="scale(1.76749)"
         id="g36"><path
           id="path38"
           style="fill:#80b4ff;fill-opacity:1;fill-rule:nonzero;stroke:none"
           d="m 16300,4256.77 c 0,0 -4396.5,-916.22 -4855.2,-891.04 0,0 324.4,322.32 729.6,335.85 405.2,13.46 580.9,396.04 1053.7,441.13 472.8,45.15 756.5,-56.18 952.3,45.15 195.9,101.33 418.8,594.4 878.1,580.88 394,-11.66 544.4,-3.34 694.3,84.53 120,-174.66 265.8,-325.84 417.4,-472.54 43,-41.53 86.3,-82.72 129.8,-123.96" /></g><path
         id="path40"
         style="fill:#afcdfb;fill-opacity:1;fill-rule:nonzero;stroke:none"
         d="m 13300.5,6671 -11447.17,1953.6 -0.12,0.8 c 7.41,107.3 17.07,215 29.25,323.1 39.04,347.5 103.86,698.4 198.89,1050.1 0,0 1220.8,245.8 1811.74,0 590.94,-245.9 537.22,-639.8 1002.81,-693.5 465.47,-53.8 887.72,-8.9 1237.87,-287.5 350.26,-278.5 875.55,-477.5 1408.71,-445.7 533.27,31.9 1671.34,159.2 2117.11,-199 445.61,-358.1 1329.11,-1138 2093.11,-1126.1 764.1,11.9 1187.7,-191.4 1313.2,-370.1 121.5,-173.1 228.2,-204 234.6,-205.7" /><g
         transform="scale(1.86186)"
         id="g42"><path
           id="path44"
           style="fill:#bfe2a8;fill-opacity:1;fill-rule:nonzero;stroke:none"
           d="m 16288.2,2368.6 c -4.2,-106.88 -15.5,-220.59 -34.8,-342.24 -84.1,-530.17 -540.9,-920.64 -1077.7,-920.37 l -3091.3,1.4 -2708.72,1.29 h -81.31 l -579.91,0.21 h -74.81 l -553.43,0.22 -94.64,0.05 -771.11,0.32 -135.94,0.16 -628.89,0.33 h -93.93 l -77.08,0.05 -1083.86,0.54 -189.28,0.05 -884.97,0.38 -130.81,0.05 -1291.05,0.65 c -165.11,0.05 -324.96,36.25 -469.93,102.79 -219.62,100.77 -405.05,271.35 -522.96,491.99 -217.56,407.23 -479.11,995.08 -621.33,1672.79 -28.78,137.17 -52.63,277.94 -70.27,421.67 -29.047,235.9 -41.165,479.69 -30.584,728.09 3.975,91.79 11.024,184.28 21.484,277.2 605.35,8.16 2204.24,-38.83 4107.19,-643.66 2431.72,-772.94 4674.75,-1269.7 6309.94,-865.69 1360.1,336.01 3049.3,752.09 4045.6,744.15 55,-52.26 110.1,-104.68 164.2,-158.23 11.6,-11.39 23.1,-22.94 34.6,-34.54 19.8,-19.87 39.3,-39.96 58.6,-60.26 79.6,-83.3 155.6,-170.48 224.3,-264.9 15.1,-20.46 29.7,-41.3 43.9,-62.46 16.8,-24.92 33,-50.38 48.6,-76.43 49.8,-82.72 93.9,-171.23 130.3,-267.37 78.7,-207.8 121.7,-451.16 109.9,-748.23" /></g><g
         transform="scale(1.37212)"
         id="g46"><path
           id="path48"
           style="fill:#f5fafe;fill-opacity:1;fill-rule:nonzero;stroke:none"
           d="m 16300,9833.14 -5098.4,52.16 c 0,0 228.9,421.3 771.2,421.3 30.2,0 61.2,-1.3 93.4,-4 0,0 430.8,380.8 1011.7,380.8 251.7,0 531.7,-71.5 817,-276.5 0,0 268.5,45 630.6,45 337.8,0 756.9,-39.2 1115.6,-190.5 495.3,-209 658.9,-428.26 658.9,-428.26" /></g><g
         transform="scale(1.02037)"
         id="g50"><path
           id="path52"
           style="fill:#f5fafe;fill-opacity:1;fill-rule:nonzero;stroke:none"
           d="m 16300,11777.3 -5807.3,49.4 c 0,0 260.7,398.5 878.4,398.5 34.4,0 69.7,-1.2 106.4,-3.8 0,0 490.7,360.2 1152.4,360.2 286.7,0 605.5,-67.6 930.5,-261.5 0,0 305.9,42.5 718.3,42.5 384.7,0 862.2,-37 1270.7,-180.1 564.2,-197.8 750.6,-405.2 750.6,-405.2" /></g><path
         id="path54"
         style="fill:#f5fafe;fill-opacity:1;fill-rule:nonzero;stroke:none"
         d="m 11251.3,14075.6 -4220.56,50.3 c 0,0 189.45,406.7 638.42,406.7 24.96,0 50.66,-1.3 77.24,-3.9 0,0 356.65,367.5 837.54,367.5 208.42,0 440.12,-69 676.34,-266.8 0,0 222.29,43.4 522,43.4 279.62,0 626.62,-37.8 923.52,-183.9 410,-201.7 545.5,-413.3 545.5,-413.3" /><path
         id="path56"
         style="fill:#daed8e;fill-opacity:1;fill-rule:nonzero;stroke:none"
         d="m 14111.2,6164.7 c 0,0 -4443.69,504.8 -6242.37,1157.5 -1798.69,652.8 -1929.44,460.9 -1493.98,115.2 435.46,-345.8 2946.5,-1162.9 1905.86,-1255.8 -1040.63,-92.8 -2913.47,180.2 -3619.28,-542.1 -705.8,-722.3 -1814.6,-1371.5 0,-1511.7 1814.61,-140.1 7113.57,855.3 7113.57,855.3 l 2336.2,1181.6" /><g
         transform="scale(1.25829)"
         id="g58"><path
           id="path60"
           style="fill:#a36f4b;fill-opacity:1;fill-rule:nonzero;stroke:none"
           d="m 15108.6,5522 c 0,0 512.4,-1233.34 569.3,-1271.32 57,-37.92 266.4,-85.99 280.6,-142.98 14.2,-56.9 341.5,-811.09 341.5,-811.09 l -1252.3,-241.92 -996.1,583.41 1057,1883.9" /></g><g
         transform="scale(1.75079)"
         id="g62"><path
           id="path64"
           style="fill:#d8a987;fill-opacity:1;fill-rule:nonzero;stroke:none"
           d="m 16138.5,1176.16 -2715.6,1.2 -571.8,0.28 -2880.6,1.38 h -86.48 l -616.69,0.22 h -79.57 l -588.53,0.23 -100.64,0.06 -820.04,0.34 -144.56,0.17 -668.79,0.35 h -99.89 l -81.97,0.05 -1152.62,0.57 -201.29,0.06 -941.12,0.4 -139.1,0.06 -1372.96,0.68 c -175.58,0.06 -345.57,38.56 -499.75,109.32 734.45,342.02 2971.14,1366.42 4745.45,1995.28 2154.74,763.72 3382.15,1172.85 3736.65,681.87 354.6,-490.93 -940.94,-1527.38 -231.8,-1554.68 709.1,-27.24 2413.8,190.94 3054.8,68.2 639.7,-122.46 573,-367.26 749.1,-381.77 0.6,-0.06 0.9,-0.06 0.9,-0.06 177.3,-13.65 1541.1,81.79 1704.8,-163.64 163.6,-245.49 2.1,-760.57 2.1,-760.57" /></g><g
         transform="scale(1.57452)"
         id="g66"><path
           id="path68"
           style="fill:#edf5fe;fill-opacity:1;fill-rule:nonzero;stroke:none"
           d="m 15308.6,8217.8 v 0.15 c 204.4,359.77 413.8,676.09 533.7,676.09 0.1,0 0.2,0 0.3,0 120.3,-0.52 284.4,-261.2 457.4,-591.7 v -0.08 0 c 0,0 -262.7,205.1 -323.4,266.9 -10.1,10.24 -20.6,14.68 -31.2,14.68 -53.8,0 -112.8,-112.29 -150.8,-165.42 -6.2,-8.63 -11.6,-12.44 -16.3,-12.44 -30.5,0 -34.3,155.09 -34.3,207.53 0,3.78 -1.7,5.55 -4.8,5.55 -47.7,0 -430.6,-401.26 -430.6,-401.26" /></g><g
         transform="scale(1.40301)"
         id="g70"><path
           id="path72"
           style="fill:#f8fcff;fill-opacity:1;fill-rule:nonzero;stroke:none"
           d="m 15340.1,7772.89 c 0,0 348.7,923.51 530.3,895.14 181.5,-28.36 429.6,-447.25 429.6,-447.25 0,0 -252.4,216.09 -299.2,143.77 -46.8,-72.33 -55.3,-215.21 -136.1,-143.77 -80.9,71.44 -131.9,81.73 -174.5,0 -42.5,-81.72 -350.1,-447.89 -350.1,-447.89" /></g><path
         id="path74"
         style="fill:#509b67;fill-opacity:1;fill-rule:nonzero;stroke:none"
         d="m 8947.24,3486.3 c -310.39,-382.1 -2220.5,-501.4 -2160.81,-776 47.87,-220 930.82,-378.7 985.38,-641.8 h -88.82 l -243.54,0.1 -2403.76,1.2 c -307.4,0.1 -605.02,67.5 -874.94,191.4 -408.89,187.6 -754.14,505.2 -973.68,916 -155.68,291.4 -323.53,632.7 -486.24,1014 0,0 814.54,820.5 2820.15,499.5 2005.62,-321 2283.66,511.4 3223.31,252 939.66,-259.4 1181.88,-38.4 1528.11,-252 346.2,-213.6 -1313.22,-571.7 -1492.29,-738.8 -179.07,-167.2 477.53,-83.6 167.13,-465.6" /><path
         id="path76"
         style="fill:#509b67;fill-opacity:1;fill-rule:nonzero;stroke:none"
         d="m 3745.82,4605.9 c 0,0 -409.82,981.1 -22.24,1194.8 387.58,213.6 -43.54,-842.4 122.11,-1234.2 82.03,-194 -99.87,39.4 -99.87,39.4" /><path
         id="path78"
         style="fill:#509b67;fill-opacity:1;fill-rule:nonzero;stroke:none"
         d="m 3556.8,4365.2 c 0,0 -505.16,620 -269.65,861.2 235.52,241.3 147.21,-620.3 350.37,-867.5 100.61,-122.4 -80.72,6.3 -80.72,6.3" /><path
         id="path80"
         style="fill:#509b67;fill-opacity:1;fill-rule:nonzero;stroke:none"
         d="m 3928.78,4421.6 c 0,0 -47.81,973.8 357.77,1040.4 405.58,66.6 -303.89,-715.4 -283.06,-1104.9 10.31,-192.9 -74.71,64.5 -74.71,64.5" /><path
         id="path82"
         style="fill:#82b378;fill-opacity:1;fill-rule:nonzero;stroke:none"
         d="m 5345.01,3439.1 c 0,0 -55.82,587.5 157.53,638 213.34,50.6 -46.91,-611.8 -46.91,-611.8 l -110.62,-26.2" /><path
         id="path84"
         style="fill:#82b378;fill-opacity:1;fill-rule:nonzero;stroke:none"
         d="m 5504.17,3424.3 c 0,0 228.5,462.1 433.52,397.7 205.02,-64.3 -327.22,-431.1 -327.22,-431.1 l -106.3,33.4" /><path
         id="path86"
         style="fill:#82b378;fill-opacity:1;fill-rule:nonzero;stroke:none"
         d="m 5063.35,3406.7 c 0,0 230.81,127.3 429.78,95.5 198.96,-31.8 230.8,-63.7 318.35,-95.5 87.54,-31.9 194.99,-95.5 147.24,-123.4 -47.76,-27.8 -445.7,23.9 -541.2,0 -95.51,-23.9 -595.25,36.1 -354.17,123.4" /><path
         id="path88"
         style="fill:#82b378;fill-opacity:1;fill-rule:nonzero;stroke:none"
         d="m 9586.68,2610.3 c 0,0 267.78,1247.3 640.82,954.8 373.1,-292.4 -422.26,-580.4 -640.82,-954.8" /><path
         id="path90"
         style="fill:#82b378;fill-opacity:1;fill-rule:nonzero;stroke:none"
         d="m 9477.15,2541.7 c 0,0 -122.41,906.3 125.19,950.6 247.61,44.3 -122.03,-676.3 -125.19,-950.6" /><path
         id="path92"
         style="fill:#82b378;fill-opacity:1;fill-rule:nonzero;stroke:none"
         d="m 9224.82,2613.1 c 0,0 213.91,103.8 369.57,94.2 155.66,-9.6 574.61,-59.2 536.31,-142 -38.4,-82.9 -457.58,-11.2 -563.77,-24.7 -106.17,-13.5 -456.82,-5.8 -342.11,72.5" /><g
         transform="scale(1.47636)"
         id="g94"><path
           id="path96"
           style="fill:#509b67;fill-opacity:1;fill-rule:nonzero;stroke:none"
           d="m 16035.8,2366.15 c 0,0 -5.3,291.13 129.4,342.33 134.8,51.21 -115.9,-266.87 -129.4,-342.33" /></g><g
         transform="scale(1.50577)"
         id="g98"><path
           id="path100"
           style="fill:#509b67;fill-opacity:1;fill-rule:nonzero;stroke:none"
           d="m 15828.8,2360.59 c 0,0 100.9,361.08 286,374.49 185.2,13.42 -241.5,-286.36 -286,-374.49" /></g><path
         id="path102"
         style="fill:#509b67;fill-opacity:1;fill-rule:nonzero;stroke:none"
         d="m 5211.46,5413.9 c 80.05,-32.4 366.06,-6.2 375.32,16.6 9.26,22.9 -177.8,240.8 -257.85,273.3 -80.05,32.4 -171.24,-6.2 -203.68,-86.2 -32.44,-80.1 6.16,-171.3 86.21,-203.7" /><path
         id="path104"
         style="fill:#509b67;fill-opacity:1;fill-rule:nonzero;stroke:none"
         d="m 5932.97,5277.4 c -44.93,-73.8 -65.24,-360.3 -44.18,-373.1 21.05,-12.8 266.35,136.6 311.3,210.3 44.94,73.8 21.58,170 -52.18,215 -73.76,44.9 -169.99,21.5 -214.94,-52.2" /><path
         id="path106"
         style="fill:#509b67;fill-opacity:1;fill-rule:nonzero;stroke:none"
         d="m 5547.5,4716.7 c 82.29,-26.3 365.47,21.7 372.97,45.2 7.49,23.5 -195.61,226.5 -277.89,252.8 -82.29,26.2 -170.28,-19.2 -196.54,-101.5 -26.25,-82.2 19.17,-170.2 101.46,-196.5" /><path
         id="path108"
         style="fill:#509b67;fill-opacity:1;fill-rule:nonzero;stroke:none"
         d="m 5964.06,4439.4 c -0.28,6.5 -31.93,655 -386.96,989.8 l 7.55,8 c 358.31,-337.9 390.13,-990.7 390.4,-997.3 l -10.99,-0.5" /><path
         id="path110"
         style="fill:#509b67;fill-opacity:1;fill-rule:nonzero;stroke:none"
         d="m 8233.41,5947.5 c -77.72,-51.6 -386.09,-85.5 -400.81,-63.4 -14.73,22.2 136.23,293.2 213.95,344.8 77.72,51.6 182.56,30.5 234.16,-47.3 51.6,-77.7 30.43,-182.5 -47.3,-234.1" /><path
         id="path112"
         style="fill:#509b67;fill-opacity:1;fill-rule:nonzero;stroke:none"
         d="m 7499.25,5647.3 c 63.47,-68.3 146.76,-367.2 127.24,-385.3 -19.51,-18.1 -311.35,87.1 -374.82,155.5 -63.48,68.3 -59.52,175.2 8.86,238.7 68.37,63.5 175.24,59.5 238.72,-8.9" /><path
         id="path114"
         style="fill:#509b67;fill-opacity:1;fill-rule:nonzero;stroke:none"
         d="m 8028.16,5137.1 c -81.42,-45.5 -391.47,-55.9 -404.47,-32.6 -13,23.2 158.15,281.9 239.57,327.5 81.42,45.5 184.34,16.4 229.88,-65 45.54,-81.4 16.45,-184.3 -64.98,-229.9" /><path
         id="path116"
         style="fill:#509b67;fill-opacity:1;fill-rule:nonzero;stroke:none"
         d="m 7647.11,4753.8 c -1.11,7 -107.49,700 196.03,1130.9 l -9.71,6.9 C 7527.1,5456.7 7634.26,4758.9 7635.38,4751.9 l 11.73,1.9" /><path
         id="path118"
         style="fill:#509b67;fill-opacity:1;fill-rule:nonzero;stroke:none"
         d="m 6697.7,4383.9 -22.78,3.6 c -89.72,1160.8 -444.17,1993.7 -449.14,2005 l 20.74,9 c 4.95,-11.5 362,-849.9 451.18,-2017.6" /><path
         id="path120"
         style="fill:#ffffff;fill-opacity:1;fill-rule:nonzero;stroke:none"
         d="m 5985.3,6509.4 c 43.71,-49.6 248.39,-129.2 262.53,-116.7 14.13,12.4 -39.5,225.4 -83.2,274.9 -43.71,49.6 -119.29,54.3 -168.81,10.6 -49.52,-43.7 -54.23,-119.3 -10.52,-168.8" /><path
         id="path122"
         style="fill:#ffffff;fill-opacity:1;fill-rule:nonzero;stroke:none"
         d="m 6298.97,6682 c -39.47,-53 -75.32,-269.7 -60.21,-280.9 15.12,-11.3 212.52,85 252,138 39.47,52.9 28.53,127.8 -24.43,167.3 -52.96,39.5 -127.89,28.6 -167.36,-24.4" /><path
         id="path124"
         style="fill:#ffffff;fill-opacity:1;fill-rule:nonzero;stroke:none"
         d="m 6534.41,6451.6 c -63.72,17.4 -278.52,-28.5 -283.47,-46.7 -4.96,-18.2 156.86,-166.7 220.58,-184.1 63.73,-17.4 129.47,20.2 146.83,84 17.37,63.7 -20.21,129.4 -83.94,146.8" /><path
         id="path126"
         style="fill:#ffffff;fill-opacity:1;fill-rule:nonzero;stroke:none"
         d="m 6389.3,6164.3 c -6.36,65.8 -125.41,250.3 -144.18,248.5 -18.76,-1.8 -100.26,-205.7 -93.9,-271.5 6.35,-65.7 64.8,-113.9 130.55,-107.5 65.74,6.3 113.88,64.8 107.53,130.5" /><path
         id="path128"
         style="fill:#ffffff;fill-opacity:1;fill-rule:nonzero;stroke:none"
         d="m 6063.5,6178.4 c 58.48,30.8 184.45,210.7 175.69,227.4 -8.77,16.7 -228.4,15.1 -286.88,-15.6 -58.48,-30.7 -81,-103 -50.29,-161.5 30.7,-58.4 102.99,-80.9 161.48,-50.3" /><path
         id="path130"
         style="fill:#f99746;fill-opacity:1;fill-rule:nonzero;stroke:none"
         d="m 6200.29,6412 c 3.43,21.4 23.62,36.1 45.1,32.7 21.48,-3.5 36.11,-23.6 32.7,-45.1 -3.43,-21.5 -23.62,-36.1 -45.1,-32.7 -21.48,3.4 -36.12,23.6 -32.7,45.1" /><path
         id="path132"
         style="fill:#509b67;fill-opacity:1;fill-rule:nonzero;stroke:none"
         d="m 6691.19,5570.7 c -64.99,-80 -135.14,-415.3 -112.32,-433.8 22.8,-18.6 336.74,118.5 401.74,198.4 64.99,79.9 52.89,197.4 -27.04,262.4 -79.92,65 -197.39,52.9 -262.38,-27" /><path
         id="path134"
         style="fill:#509b67;fill-opacity:1;fill-rule:nonzero;stroke:none"
         d="m 8782.93,4307.5 22.78,3.7 c 89.72,1160.7 444.17,1993.7 449.14,2005 l -20.74,8.9 c -4.95,-11.4 -361.99,-849.9 -451.18,-2017.6" /><path
         id="path136"
         style="fill:#ffffff;fill-opacity:1;fill-rule:nonzero;stroke:none"
         d="m 9495.33,6433 c -43.71,-49.5 -248.39,-129.2 -262.53,-116.7 -14.13,12.5 39.49,225.5 83.2,275 43.71,49.5 119.29,54.2 168.81,10.5 49.52,-43.7 54.23,-119.3 10.52,-168.8" /><path
         id="path138"
         style="fill:#ffffff;fill-opacity:1;fill-rule:nonzero;stroke:none"
         d="m 9181.66,6605.6 c 39.47,-52.9 75.32,-269.6 60.21,-280.9 -15.12,-11.2 -212.52,85 -252,138 -39.47,53 -28.53,127.9 24.43,167.4 52.96,39.4 127.89,28.5 167.36,-24.5" /><path
         id="path140"
         style="fill:#ffffff;fill-opacity:1;fill-rule:nonzero;stroke:none"
         d="m 8946.22,6375.2 c 63.72,17.4 278.52,-28.5 283.47,-46.7 4.96,-18.1 -156.86,-166.7 -220.58,-184 -63.73,-17.4 -129.47,20.2 -146.83,83.9 -17.37,63.7 20.21,129.5 83.94,146.8" /><path
         id="path142"
         style="fill:#ffffff;fill-opacity:1;fill-rule:nonzero;stroke:none"
         d="m 9091.33,6088 c 6.36,65.7 125.41,250.3 144.18,248.5 18.76,-1.8 100.26,-205.8 93.9,-271.5 -6.35,-65.8 -64.8,-113.9 -130.55,-107.6 -65.74,6.4 -113.88,64.8 -107.53,130.6" /><path
         id="path144"
         style="fill:#ffffff;fill-opacity:1;fill-rule:nonzero;stroke:none"
         d="m 9417.13,6102.1 c -58.48,30.7 -184.45,210.6 -175.69,227.3 8.77,16.7 228.4,15.2 286.88,-15.5 58.48,-30.7 81,-103 50.29,-161.5 -30.7,-58.5 -102.99,-81 -161.48,-50.3" /><path
         id="path146"
         style="fill:#f99746;fill-opacity:1;fill-rule:nonzero;stroke:none"
         d="m 9280.34,6335.6 c -3.43,21.5 -23.61,36.1 -45.1,32.7 -21.48,-3.4 -36.11,-23.6 -32.69,-45.1 3.42,-21.5 23.61,-36.1 45.09,-32.7 21.48,3.4 36.12,23.6 32.7,45.1" /><path
         id="path148"
         style="fill:#509b67;fill-opacity:1;fill-rule:nonzero;stroke:none"
         d="m 8789.44,5494.3 c 64.99,-79.9 135.14,-415.2 112.33,-433.8 -22.81,-18.5 -336.75,118.5 -401.74,198.4 -65,80 -52.9,197.4 27.03,262.4 79.92,65 197.39,52.9 262.38,-27" /><g
         transform="scale(1.37088)"
         id="g150"><path
           id="path152"
           style="fill:#509b67;fill-opacity:1;fill-rule:nonzero;stroke:none"
           d="m 15926.8,3401.25 c 76.5,-33.7 353.9,-16.78 363.6,5.04 9.6,21.81 -164.9,238.17 -241.4,271.94 -76.5,33.7 -165.8,-0.88 -199.5,-77.4 -33.8,-76.44 0.9,-165.8 77.3,-199.58" /></g><g
         transform="scale(1.42301)"
         id="g154"><path
           id="path156"
           style="fill:#509b67;fill-opacity:1;fill-rule:nonzero;stroke:none"
           d="m 16011.7,3128.93 c -44,-67.47 -71,-333.87 -51.8,-346.38 19.3,-12.58 252.1,119.68 296.1,187.07 44,67.46 25,157.83 -42.5,201.75 -67.5,43.99 -157.8,25.02 -201.8,-42.44" /></g><g
         transform="scale(1.39621)"
         id="g158"><path
           id="path160"
           style="fill:#509b67;fill-opacity:1;fill-rule:nonzero;stroke:none"
           d="m 15936.7,2667.71 c 77.4,-27.36 347.7,9.96 355.5,32.02 7.8,22.13 -179.2,220.88 -256.6,248.17 -77.4,27.36 -162.3,-13.25 -189.5,-90.6 -27.4,-77.43 13.2,-162.3 90.6,-189.59" /></g><g
         transform="scale(1.39918)"
         id="g162"><path
           id="path164"
           style="fill:#509b67;fill-opacity:1;fill-rule:nonzero;stroke:none"
           d="m 16289.6,2387.18 c -0.1,6.22 -11.3,621.57 -338,949.19 l 7.3,7.36 c 329.8,-330.62 341,-950.19 341.1,-956.41 l -10.4,-0.14" /></g><g
         transform="scale(1.44154)"
         id="g166"><path
           id="path168"
           style="fill:#509b67;fill-opacity:1;fill-rule:nonzero;stroke:none"
           d="m 16300,2299.28 -13.8,2.15 c -54.5,704.73 -269.7,1210.44 -272.7,1217.31 l 12.6,5.41 c 3,-6.94 219.8,-515.98 273.9,-1224.87" /></g><g
         transform="scale(1.41815)"
         id="g170"><path
           id="path172"
           style="fill:#ffffff;fill-opacity:1;fill-rule:nonzero;stroke:none"
           d="m 16129.2,3648.85 c 27,-30.54 153.3,-79.69 162.1,-72 8.7,7.68 -24.4,139.13 -51.4,169.66 -27,30.6 -73.6,33.49 -104.2,6.49 -30.5,-26.94 -33.4,-73.62 -6.5,-104.15" /></g><g
         transform="scale(1.43255)"
         id="g174"><path
           id="path176"
           style="fill:#ffffff;fill-opacity:1;fill-rule:nonzero;stroke:none"
           d="m 16158.7,3717.65 c -24.1,-32.39 -46,-164.75 -36.7,-171.66 9.2,-6.84 129.8,51.94 153.9,84.33 24.1,32.32 17.5,78.11 -14.9,102.27 -32.3,24.08 -78.1,17.38 -102.3,-14.94" /></g><g
         transform="scale(1.43821)"
         id="g178"><path
           id="path180"
           style="fill:#ffffff;fill-opacity:1;fill-rule:nonzero;stroke:none"
           d="m 16238.3,3562.82 c -38.8,10.5 -169.5,-17.38 -172.5,-28.44 -3,-11.05 95.5,-101.44 134.3,-112.01 38.7,-10.57 78.8,12.31 89.3,51.03 10.6,38.8 -12.3,78.78 -51.1,89.42" /></g><g
         transform="scale(1.42533)"
         id="g182"><path
           id="path184"
           style="fill:#ffffff;fill-opacity:1;fill-rule:nonzero;stroke:none"
           d="m 16296.1,3418.59 c -4,40.41 -77,153.72 -88.6,152.6 -11.5,-1.13 -61.5,-126.36 -57.6,-166.7 3.9,-40.35 39.8,-69.95 80.2,-66.02 40.3,3.86 69.9,39.78 66,80.12" /></g><g
         transform="scale(1.41739)"
         id="g186"><path
           id="path188"
           style="fill:#ffffff;fill-opacity:1;fill-rule:nonzero;stroke:none"
           d="m 16186.1,3446.47 c 36.2,18.98 113.9,130.03 108.5,140.33 -5.4,10.37 -141.1,9.38 -177.1,-9.6 -36.1,-18.91 -50,-63.57 -31.1,-99.69 18.9,-36.12 63.6,-50.02 99.7,-31.04" /></g><g
         transform="scale(1.4192)"
         id="g190"><path
           id="path192"
           style="fill:#f99746;fill-opacity:1;fill-rule:nonzero;stroke:none"
           d="m 16249.9,3586.11 c 2.1,13.25 14.6,22.27 27.8,20.16 13.3,-2.12 22.3,-14.59 20.2,-27.84 -2.1,-13.24 -14.6,-22.26 -27.8,-20.15 -13.3,2.12 -22.3,14.59 -20.2,27.83" /></g><g
         transform="scale(1.46022)"
         id="g194"><path
           id="path196"
           style="fill:#509b67;fill-opacity:1;fill-rule:nonzero;stroke:none"
           d="m 16087.6,2981.13 c -39,-47.94 -81,-248.87 -67.4,-259.97 13.7,-11.16 201.9,71.02 240.8,118.89 39,47.94 31.7,118.34 -16.2,157.24 -47.9,38.96 -118.3,31.7 -157.2,-16.16" /></g><g
         transform="scale(1.75079)"
         id="g198"><path
           id="path200"
           style="fill:#509b67;fill-opacity:1;fill-rule:nonzero;stroke:none"
           d="m 16138.5,1176.16 -2715.6,1.2 c 13.7,129.43 259.5,194.83 236.7,322.54 -29.2,163.64 -1239,225.04 -753.5,433.8 476.9,205.05 1488.4,168.1 1524.6,166.73 0.6,-0.06 0.9,-0.06 0.9,-0.06 177.3,-13.65 1541.1,81.79 1704.8,-163.64 163.6,-245.49 2.1,-760.57 2.1,-760.57" /></g><path
         id="path202"
         style="fill:#af5919;fill-opacity:1;fill-rule:nonzero;stroke:none"
         d="m 14159.9,4662.6 c 0,0 29.2,-455.8 117.4,-462.1 11.8,-0.9 447.3,0.1 447.3,0.1 l 556,4.4 c 0,0 -3.9,134 -166.5,162 -162.6,27.9 -434.9,141.5 -533.8,356.1 -104.1,225.8 -420.4,-60.5 -420.4,-60.5" /><g
         transform="scale(1.11397)"
         id="g204"><path
           id="path206"
           style="fill:#af5919;fill-opacity:1;fill-rule:nonzero;stroke:none"
           d="m 15251.1,4532.35 c 0,0 76.3,-402.79 155.5,-398.75 10.6,0.54 398.5,49.28 398.5,49.28 l 494.9,65.08 c 0,0 -18.2,118.95 -166.2,125.95 -147.9,7 -402.9,78.28 -514.7,258.62 -117.5,189.69 -368,-100.18 -368,-100.18" /></g><path
         id="path208"
         style="fill:#163560;fill-opacity:1;fill-rule:nonzero;stroke:none"
         d="m 16003.4,9565.5 c 0,0 -143.4,-930.4 -682.3,-2582.5 -538.9,-1652.2 -611.2,-2367.3 -611.2,-2367.3 l -582,15.1 c 0,0 -8.9,1804.3 239.3,2635.1 248.2,830.7 47.4,2993.1 47.4,2993.1 l 1588.8,-693.5" /><g
         transform="scale(1.07456)"
         id="g210"><path
           id="path212"
           style="fill:#1c468a;fill-opacity:1;fill-rule:nonzero;stroke:none"
           d="m 15039.9,9687.71 c 0,0 737.4,-1488.99 924.9,-2667.71 187.6,-1178.72 335.2,-2257.2 335.2,-2257.2 0,0 -181.2,-66.64 -520.7,-96.05 0,0 -574.5,1711.4 -635.5,2137.63 -61,426.22 -1773.2,2130.17 -1639.6,2550.76 133.8,420.57 1535.7,332.57 1535.7,332.57" /></g><path
         id="path214"
         style="fill:#ed7d2b;fill-opacity:1;fill-rule:nonzero;stroke:none"
         d="m 15013.3,13496.4 c 0,0 -818.2,-785.5 -857.4,-1108.9 -39.1,-323.4 397,-828.2 397,-828.2 l 460.4,1937.1" /><path
         id="path216"
         style="fill:#ffb27d;fill-opacity:1;fill-rule:nonzero;stroke:none"
         d="m 15153.8,13489.4 309.8,-202.2 447.1,84.3 c -6.3,36.1 -36.2,185.7 -63.3,321.1 -1.7,8 -3.3,16 -4.9,23.8 -23.2,115.3 -43.3,214.3 -43.3,214.3 l -418.1,183.4 -155.9,68.4 c 0.4,-2.5 12.4,-128 14,-146.3 29.9,-325.4 -85.4,-546.8 -85.4,-546.8" /><path
         id="path218"
         style="fill:#ed7d2b;fill-opacity:1;fill-rule:nonzero;stroke:none"
         d="m 15795.6,13593.2 c -8.6,3.6 -538.8,158.8 -596.4,139.7 -57.5,-19.1 -91.3,-130.6 -91.3,-130.6 l 867.1,-194 c 0,0 -68.5,138.5 -179.4,184.9" /><g
         transform="scale(1.00565)"
         id="g220"><path
           id="path222"
           style="fill:#f99746;fill-opacity:1;fill-rule:nonzero;stroke:none"
           d="m 14295.8,9978.57 c 90.2,-407.25 1576.6,-452.3 1959,-81.69 43.4,42.26 45.2,238.42 28.2,502.82 -33.3,516.5 -138.2,1293.5 -143.1,1690.5 -2.4,191.7 -29.2,387.8 -64.6,565.8 -75.6,379.4 -190.1,677 -190.1,677 0,0 -726.5,233.1 -862.2,192.9 -654,-193.7 -817.4,-3140.1 -727.2,-3547.33" /></g><g
         transform="scale(1.0046)"
         id="g224"><path
           id="path226"
           style="fill:#ed7d2b;fill-opacity:1;fill-rule:nonzero;stroke:none"
           d="m 16300,10410.5 c -33.3,517.1 -51.4,1371 -56.2,1768.4 -2.4,192 -116.3,312.1 -151.7,490.3 l -437.4,76.2 c 0,0 -423.7,-1746.7 645.3,-2334.9" /></g><g
         transform="scale(1.0068)"
         id="g228"><path
           id="path230"
           style="fill:#163560;fill-opacity:1;fill-rule:nonzero;stroke:none"
           d="m 15481.3,10998.2 c 0,0 494.2,431.9 679,705.1 l 139.7,-94.4 c 0,0 -389.7,-652.2 -762.1,-824.1 -372.5,-171.9 -56.6,213.4 -56.6,213.4" /></g><path
         id="path232"
         style="fill:#fca56b;fill-opacity:1;fill-rule:nonzero;stroke:none"
         d="m 15270.6,14030.5 c 92,-155.2 434.1,-288.8 576.8,-337.9 -1.7,8 -3.3,16 -4.9,23.8 -23.2,115.3 -43.3,214.3 -43.3,214.3 l -418.1,183.4 c -92.3,1.1 -148.5,-19.7 -110.5,-83.6" /><path
         id="path234"
         style="fill:#ffb27d;fill-opacity:1;fill-rule:nonzero;stroke:none"
         d="m 15941.1,13975.6 c 0,0 -634.6,-306.6 -819.4,91.6 -184.9,398.1 -391.3,626.7 6,839.3 397.4,212.6 547.2,97.4 641.3,-20.4 94,-117.9 332.4,-820.4 172.1,-910.5" /><path
         id="path236"
         style="fill:#163560;fill-opacity:1;fill-rule:nonzero;stroke:none"
         d="m 15736.9,14922.3 c 0,0 29.6,-490.9 -73.7,-484.8 -103.4,6.2 -196.6,8.2 -160.2,-135.7 36.4,-143.9 200.5,-291.9 -104.5,-363.6 -305,-71.8 -867.5,658.6 -805.1,822 180.1,471.6 1418.3,745.6 1143.5,162.1" /><path
         id="path238"
         style="fill:#163560;fill-opacity:1;fill-rule:nonzero;stroke:none"
         d="m 14715,11779 c 0,0 -75.9,-9.2 -82.8,-80.6 -7,-71.4 -54.9,-940.6 -11.4,-963.6 43.4,-23 224.1,-13.7 234.6,0 10.5,13.7 49.6,967.6 23.3,1025.1 0,0 -88.1,34.2 -163.7,19.1" /><g
         transform="scale(1.01483)"
         id="g240"><path
           id="path242"
           style="fill:#ffb27d;fill-opacity:1;fill-rule:nonzero;stroke:none"
           d="m 16139.9,10629.7 c 0,0 103.2,-76.6 124.9,-159.7 35.2,-134.6 12.7,-260.5 -119.3,-311.1 -48.7,-18.7 -55.4,97 -91.5,146.7 -36,49.7 -164.8,77.1 -135.3,152.8 29.4,75.7 87.1,223.5 87.1,223.5 l 134.1,-52.2" /></g><path
         id="path244"
         style="fill:#ffb27d;fill-opacity:1;fill-rule:nonzero;stroke:none"
         d="m 16204.9,10742.1 c 0,0 -82.9,-91.1 -91.4,-149.8 -8.6,-58.6 -12,-149.3 -13.9,-188 -1.9,-38.7 17.6,-70.7 53.4,-7.7 35.8,63.1 66.6,146.9 90.9,146.8 24.4,-0.1 -39,198.7 -39,198.7" /><g
         transform="scale(1.04925)"
         id="g246"><path
           id="path248"
           style="fill:#f99746;fill-opacity:1;fill-rule:nonzero;stroke:none"
           d="m 14897.1,12877.8 c 0,0 495.9,-87.7 878.5,-649 382.7,-561.2 524.4,-920.2 454.5,-1122.9 -69.8,-202.7 -418.4,-831.3 -488.7,-916.4 -60.2,-72.8 -234.8,-67.6 -349,-18.4 0,0 221.3,935.2 132.3,1036.3 -38,43.1 -528.9,457.6 -606.5,256.7 -128.6,-332.4 -21.1,1413.7 -21.1,1413.7" /></g><path
         id="path250"
         style="fill:#163560;fill-opacity:1;fill-rule:nonzero;stroke:none"
         d="m 16075.2,13311.5 c 0,0 -85.3,150.6 -287.4,180.7 -202,30.1 -324.2,-205 -324.2,-205 l 151.1,-57.4 c 0,0 97.2,178.5 185.1,178.5 110.9,0 200.6,-37.7 275.4,-96.8" /><path
         id="path252"
         style="fill:#163560;fill-opacity:1;fill-rule:nonzero;stroke:none"
         d="m 15747.7,12589.5 c 0,0 -210.4,2.8 -480.1,9.1 -474.2,10.9 -1131.6,32.2 -1148.5,66.6 -26.4,54.1 8.7,655.8 170.8,699.3 14.1,3.8 34.3,6.9 59.4,9.3 261.8,25.1 1062,-22.4 1246.7,-81.8 202.1,-65.2 151.7,-702.5 151.7,-702.5" /><path
         id="path254"
         style="fill:#1c468a;fill-opacity:1;fill-rule:nonzero;stroke:none"
         d="m 15267.6,12598.6 c -474.2,10.9 -1131.6,32.2 -1148.5,66.6 -26.4,54.1 8.7,655.8 170.8,699.3 14.1,3.8 34.3,6.9 59.4,9.3 309.7,-13.4 653,-45.4 765.9,-81.8 188,-60.6 157.7,-615.4 152.4,-693.4" /><path
         id="path256"
         style="fill:#1c468a;fill-opacity:1;fill-rule:nonzero;stroke:none"
         d="m 15747.7,12589.5 c 0,0 -1624.3,161.4 -1905.6,67.5 -281.3,-93.8 -281.3,-2010.2 -193.4,-2142.1 87.9,-131.8 1683.6,-254.3 1909.9,-184.3 226.3,70 189.1,2258.9 189.1,2258.9" /><path
         id="path258"
         style="fill:#163560;fill-opacity:1;fill-rule:nonzero;stroke:none"
         d="m 15267.9,12631.8 c 0,0 -222.4,-20.3 -242.8,-178.5 -20.4,-158.3 -160.8,-2084.8 -33.5,-2135.8 127.4,-50.9 657,-30.3 687.8,0 30.7,30.4 145.4,2144.6 68.3,2272 0,0 -258.3,75.7 -479.8,42.3" /><path
         id="path260"
         style="fill:#163560;fill-opacity:1;fill-rule:nonzero;stroke:none"
         d="m 14260.7,13156.9 c 0,0 -51.8,-267.3 15,-308 66.9,-40.7 229.4,-52.3 269.8,-4.6 40.3,47.7 31.6,307.2 31.6,307.2 l -316.4,5.4" /><path
         id="path262"
         style="fill:#29589b;fill-opacity:1;fill-rule:nonzero;stroke:none"
         d="m 14260.7,13156.9 c 0,0 22.6,-108.1 149.4,-110.3 126.7,-2.1 167,104.9 167,104.9 0,0 -172,77.8 -316.4,5.4" /><path
         id="path264"
         style="fill:#f99746;fill-opacity:1;fill-rule:nonzero;stroke:none"
         d="m 14387.2,13088.8 c 0.2,13 11,23.4 24,23.2 13,-0.2 23.4,-11 23.2,-24 -0.2,-13.1 -11,-23.5 -24,-23.2 -13.1,0.2 -23.5,10.9 -23.2,24" /><path
         id="path266"
         style="fill:#163560;fill-opacity:1;fill-rule:nonzero;stroke:none"
         d="m 14739.1,13124.4 c 0,0 -68.8,-263.4 -4.7,-308.4 64.1,-44.9 225.5,-66.8 268.9,-21.8 43.3,44.9 51.2,304.5 51.2,304.5 l -315.4,25.7" /><path
         id="path268"
         style="fill:#29589b;fill-opacity:1;fill-rule:nonzero;stroke:none"
         d="m 14739.1,13124.4 c 0,0 15.7,-109.4 142,-119.6 126.4,-10.3 173.4,93.9 173.4,93.9 0,0 -166.6,88.6 -315.4,25.7" /><path
         id="path270"
         style="fill:#f99746;fill-opacity:1;fill-rule:nonzero;stroke:none"
         d="m 14861,13048.3 c 1,13 12.4,22.7 25.4,21.6 13,-1 22.7,-12.4 21.7,-25.5 -1.1,-13 -12.5,-22.6 -25.5,-21.6 -13,1.1 -22.7,12.5 -21.6,25.5" /><path
         id="path272"
         style="fill:#163560;fill-opacity:1;fill-rule:nonzero;stroke:none"
         d="m 13811.3,12431.3 c 0,0 -70.3,-248.3 -30.7,-313.2 39.5,-64.8 931.8,-108.8 988.9,-56 57.2,52.7 66,338.4 66,338.4 l -1024.2,30.8" /><path
         id="path274"
         style="fill:#29589b;fill-opacity:1;fill-rule:nonzero;stroke:none"
         d="m 13811.3,12431.3 c 0,0 122,-153.9 430.2,-158.2 308.3,-4.4 594,127.4 594,127.4 0,0 -720.9,127.5 -1024.2,30.8" /><path
         id="path276"
         style="fill:#f99746;fill-opacity:1;fill-rule:nonzero;stroke:none"
         d="m 14193.7,12331.3 c 0,14.6 11.9,26.4 26.4,26.4 14.6,0 26.4,-11.8 26.4,-26.4 0,-14.6 -11.8,-26.4 -26.4,-26.4 -14.5,0 -26.4,11.8 -26.4,26.4" /><path
         id="path278"
         style="fill:#29589b;fill-opacity:1;fill-rule:nonzero;stroke:none"
         d="m 14591.2,11789.2 c 0,0 -737,31.4 -779.9,0 -42.8,-31.5 -59.3,-1046.8 -26.3,-1096.3 32.9,-49.4 778,-72.5 778,-72.5 l 28.2,1168.8" /><g
         transform="scale(1.86186)"
         id="g280"><path
           id="path282"
           style="fill:#daed8e;fill-opacity:1;fill-rule:nonzero;stroke:none"
           d="m 16288.2,2368.6 c -242.5,11.82 -607.6,30.56 -922.2,51.02 -525.7,34.22 -294.9,196.64 -51.3,427.53 243.7,230.96 -756.6,102.54 -1500.3,51.03 -743.8,-51.46 -1859.5,-25.46 -1462.1,296.42 397.4,321.94 3285.7,688.19 3285.7,688.19 11.6,-11.39 23.1,-22.94 34.6,-34.54 19.8,-19.87 39.3,-39.96 58.6,-60.26 79.6,-83.3 155.6,-170.48 224.3,-264.9 15.1,-20.46 29.7,-41.3 43.9,-62.46 16.8,-24.92 33,-50.38 48.6,-76.43 49.8,-82.72 93.9,-171.23 130.3,-267.37 78.7,-207.8 121.7,-451.16 109.9,-748.23" /></g><path
         id="path284"
         style="fill:#82b378;fill-opacity:1;fill-rule:nonzero;stroke:none"
         d="m 4412.05,7688.5 c -454.97,0 -1190.13,-23.9 -965.8,-167.1 224.31,-143.3 415.32,-358.2 -348.72,-382 -755.33,-23.7 -1188.33,-61.8 -1198.12,-62.6 -54.08,439.2 -76.64,893.1 -56.94,1355.6 0,0 707.57,201.6 1137.35,0 429.77,-201.7 738.5,-39.5 1072.76,-254.4 334.28,-214.9 1038.63,-238.8 1181.89,-358.2 143.25,-119.4 -367.58,-131.3 -822.42,-131.3" /><g
         transform="scale(1.351)"
         id="g286"><path
           id="path288"
           style="fill:#edc5a2;fill-opacity:1;fill-rule:nonzero;stroke:none"
           d="m 16275.2,2056.85 24.8,421.46 c 0,0 -212.1,176.47 -242.4,188.6 -30.3,12.14 -488.1,82.16 -488.1,82.16 l 19.8,-395.85 143.3,-287.64 542.6,-8.73" /></g><g
         transform="scale(1.33272)"
         id="g290"><path
           id="path292"
           style="fill:#f9ddbf;fill-opacity:1;fill-rule:nonzero;stroke:none"
           d="m 15441.5,2099.17 c 0,0 -30.1,311.09 -14.1,345.08 16,34.07 307.3,352.37 355.7,342.54 48.3,-9.83 315,-109.4 361.7,-147.07 46.7,-37.67 155.2,-332.1 153.4,-362.72 -1.8,-30.61 -11.1,-188.48 -11.1,-188.48 l -845.6,10.65" /></g><g
         transform="scale(1.29049)"
         id="g294"><path
           id="path296"
           style="fill:#edc5a2;fill-opacity:1;fill-rule:nonzero;stroke:none"
           d="m 16296.1,2050 3.4,189.46 c 0.5,29.68 -13.1,57.81 -36.8,75.63 -51.3,38.59 -138.4,103.22 -154.9,109.03 -14.9,5.27 -159.1,22.7 -265.1,35.02 -58.5,6.74 -108.3,-41.92 -103,-100.5 l 15.6,-171.49 c 1.2,-12.7 4.9,-25.03 11.1,-36.26 l 82.9,-150.64 c 16.7,-30.3 48.9,-48.82 83.5,-47.97 l 272.9,6.74 c 49.6,1.24 89.5,41.38 90.4,90.98" /></g><g
         transform="scale(1.27758)"
         id="g298"><path
           id="path300"
           style="fill:#f9ddbf;fill-opacity:1;fill-rule:nonzero;stroke:none"
           d="m 15732.7,1961.21 c -48.6,-1.41 -90,34.52 -95.7,82.74 -8.3,70.99 -17.5,163.2 -10.8,179.16 11.2,26.62 303.9,264.34 341.3,258.23 37.4,-6.03 166,-58.39 203,-85.87 37.1,-27.39 129.5,-249.85 129,-273.4 l -0.9,-55.58 c -0.9,-50.02 -41,-90.48 -91,-91.89 l -474.9,-13.39" /></g><path
         id="path302"
         style="fill:#edc5a2;fill-opacity:1;fill-rule:nonzero;stroke:none"
         d="m 11167.4,4117.9 -3.7,206.7 c -0.6,32.4 14.3,63.1 40.2,82.6 55.9,42.1 151,112.6 169,118.9 16.2,5.8 173.6,24.8 289.3,38.2 63.8,7.4 118.2,-45.7 112.4,-109.6 l -17,-187.1 c -1.3,-13.9 -5.4,-27.4 -12.1,-39.7 l -90.5,-164.3 c -18.2,-33.1 -53.4,-53.3 -91.1,-52.4 l -297.8,7.4 c -54.2,1.3 -97.7,45.1 -98.7,99.3" /><path
         id="path304"
         style="fill:#f9ddbf;fill-opacity:1;fill-rule:nonzero;stroke:none"
         d="m 11954.1,3999.5 c 52.4,-1.5 97.2,37.3 103.3,89.4 9.1,76.8 18.9,176.4 11.7,193.6 -12.1,28.8 -328.3,285.5 -368.7,279 -40.4,-6.5 -179.4,-63.1 -219.4,-92.8 -40,-29.6 -139.8,-270 -139.4,-295.4 l 1.1,-60 c 1,-54.1 44.3,-97.8 98.3,-99.3 l 513.1,-14.5" /><path
         id="path306"
         style="fill:#edc5a2;fill-opacity:1;fill-rule:nonzero;stroke:none"
         d="m 10322,3965.9 -2,112.4 c -0.4,17.6 7.7,34.3 21.8,44.9 30.4,22.9 82.1,61.3 91.9,64.7 8.8,3.1 94.4,13.5 157.4,20.8 34.6,4 64.2,-24.9 61.1,-59.6 l -9.3,-101.8 c -0.7,-7.5 -2.9,-14.9 -6.6,-21.5 l -49.2,-89.4 c -9.9,-18 -29,-29 -49.5,-28.5 l -162,4 c -29.4,0.7 -53.1,24.6 -53.6,54" /><path
         id="path308"
         style="fill:#f9ddbf;fill-opacity:1;fill-rule:nonzero;stroke:none"
         d="m 10749.8,3901.6 c 28.5,-0.8 52.8,20.2 56.2,48.6 4.9,41.7 10.2,95.9 6.3,105.3 -6.6,15.6 -178.5,155.2 -200.5,151.7 -22,-3.6 -97.5,-34.3 -119.3,-50.5 -21.7,-16.1 -76,-146.8 -75.8,-160.6 l 0.6,-32.7 c 0.5,-29.4 24.1,-53.1 53.5,-54 l 279,-7.8" /><g
         transform="scale(1.16877)"
         id="g310"><path
           id="path312"
           style="fill:#edc5a2;fill-opacity:1;fill-rule:nonzero;stroke:none"
           d="m 16014.8,3080.67 -1.7,96.08 c -0.3,15.15 6.6,29.43 18.7,38.5 26,19.6 70.2,52.37 78.6,55.36 7.5,2.65 80.8,11.46 134.6,17.71 29.7,3.51 55,-21.22 52.3,-50.99 l -7.9,-87.02 c -0.6,-6.5 -2.5,-12.74 -5.7,-18.48 l -42.1,-76.49 c -8.4,-15.4 -24.8,-24.81 -42.3,-24.38 l -138.6,3.42 c -25.2,0.68 -45.4,21.05 -45.9,46.29" /></g><g
         transform="scale(1.17864)"
         id="g314"><path
           id="path316"
           style="fill:#f9ddbf;fill-opacity:1;fill-rule:nonzero;stroke:none"
           d="m 16243.6,3000.23 c 24.2,-0.68 44.9,17.22 47.7,41.23 4.2,35.38 8.7,81.37 5.4,89.34 -5.6,13.24 -151.5,131.68 -170.1,128.71 -18.7,-2.97 -82.7,-29.1 -101.2,-42.76 -18.4,-13.75 -64.5,-124.64 -64.3,-136.35 l 0.5,-27.65 c 0.4,-24.95 20.4,-45.14 45.4,-45.82 l 236.6,-6.7" /></g><path
         id="path318"
         style="fill:#edc5a2;fill-opacity:1;fill-rule:nonzero;stroke:none"
         d="m 8063.31,2416.2 -2.03,112.3 c -0.32,17.7 7.79,34.4 21.87,45 30.39,22.8 82.07,61.2 91.89,64.7 8.8,3.1 94.42,13.4 157.33,20.7 34.69,4.1 64.28,-24.8 61.11,-59.6 l -9.25,-101.8 c -0.69,-7.5 -2.94,-14.8 -6.59,-21.5 l -49.2,-89.4 c -9.9,-18 -29.02,-29 -49.56,-28.5 l -161.92,4 c -29.46,0.8 -53.12,24.6 -53.65,54.1" /><path
         id="path320"
         style="fill:#f9ddbf;fill-opacity:1;fill-rule:nonzero;stroke:none"
         d="m 8491.08,2351.8 c 28.5,-0.8 52.86,20.3 56.2,48.6 4.91,41.7 10.28,95.9 6.33,105.3 -6.58,15.6 -178.51,155.2 -200.48,151.7 -21.98,-3.6 -97.54,-34.3 -119.29,-50.4 -21.75,-16.2 -76.05,-146.9 -75.8,-160.7 l 0.59,-32.6 c 0.53,-29.4 24.07,-53.2 53.45,-54.1 l 279,-7.8" /><path
         id="path322"
         style="fill:#edc5a2;fill-opacity:1;fill-rule:nonzero;stroke:none"
         d="m 10653.8,4294 -1.4,78.3 c -0.2,12.3 5.4,23.9 15.2,31.3 21.2,16 57.2,42.7 64,45.1 6.2,2.1 65.8,9.3 109.6,14.4 24.2,2.9 44.8,-17.3 42.6,-41.5 l -6.4,-70.9 c -0.5,-5.2 -2.1,-10.3 -4.6,-15 l -34.3,-62.2 c -6.9,-12.6 -20.2,-20.2 -34.5,-19.9 l -112.8,2.8 c -20.5,0.5 -37,17.1 -37.4,37.6" /><path
         id="path324"
         style="fill:#f9ddbf;fill-opacity:1;fill-rule:nonzero;stroke:none"
         d="m 10951.8,4249.2 c 19.8,-0.5 36.8,14.1 39.1,33.9 3.4,29 7.2,66.8 4.4,73.3 -4.5,10.9 -124.3,108.1 -139.6,105.7 -15.3,-2.5 -68,-23.9 -83.1,-35.2 -15.1,-11.2 -53,-102.2 -52.8,-111.9 l 0.4,-22.7 c 0.4,-20.5 16.8,-37 37.2,-37.6 l 194.4,-5.5" /></g></g></svg>